<svg xmlns="http://www.w3.org/2000/svg" width="1200" height="630" viewBox="0 0 1200 630">
  <defs>
    <linearGradient id="bg" x1="0" y1="0" x2="1" y2="1">
      <stop stop-color="#07121e"/>
      <stop offset=".62" stop-color="#0d1b2a"/>
      <stop offset="1" stop-color="#006b73"/>
    </linearGradient>
    <linearGradient id="accent" x1="0" y1="0" x2="1" y2="0">
      <stop stop-color="#0096d6"/>
      <stop offset="1" stop-color="#00b4b0"/>
    </linearGradient>
  </defs>
  <rect width="1200" height="630" fill="url(#bg)"/>
  <g opacity=".12" stroke="#fff">
    <path d="M0 90h1200M0 180h1200M0 270h1200M0 360h1200M0 450h1200M0 540h1200"/>
    <path d="M90 0v630M180 0v630M270 0v630M360 0v630M450 0v630M540 0v630M630 0v630M720 0v630M810 0v630M900 0v630M990 0v630M1080 0v630"/>
  </g>
  <rect x="72" y="68" width="170" height="12" rx="6" fill="url(#accent)"/>
  <text x="72" y="164" fill="#fff" font-family="Inter,Arial,sans-serif" font-size="64" font-weight="800">RGNFIX</text>
  <text x="72" y="260" fill="#fff" font-family="Inter,Arial,sans-serif" font-size="48" font-weight="700">Ölçüye Özel Plise Perde</text>
  <text x="72" y="320" fill="#fff" font-family="Inter,Arial,sans-serif" font-size="48" font-weight="700">ve Plise Sineklik</text>
  <text x="72" y="395" fill="#a9c7d4" font-family="Inter,Arial,sans-serif" font-size="25">Ölçünü gir • Fiyatı gör • Türkiye geneli sipariş ver</text>
  <g transform="translate(880 110)">
    <rect width="210" height="410" rx="28" fill="#e8f4f3" opacity=".92"/>
    <path d="M20 40h170M20 80h170M20 120h170M20 160h170M20 200h170M20 240h170M20 280h170M20 320h170M20 360h170" stroke="#0d1b2a" stroke-width="8" opacity=".16"/>
    <rect x="20" y="22" width="8" height="366" rx="4" fill="#00b4b0"/>
  </g>
</svg>
